<svg xmlns="http://www.w3.org/2000/svg" viewBox="0 0 256 256"><path d="M169.844 37.51c-1.46-.032-2.913.07-4.334.302-8.523 1.392-16.014 7.36-18.906 16.01a73.126 73.126 0 00-1.667 5.668A187.383 187.383 0 00128 58.708c-3.728 0-9.743.122-16.938.782a73.24 73.24 0 00-1.666-5.657c-2.892-8.652-10.383-14.619-18.906-16.01a23.738 23.738 0 00-8.74.208c-11.787 2.493-28.62 7.33-41.896 18.104a8.002 8.002 0 1010.083 12.427c9.776-7.934 24.619-12.653 35.125-14.875 3.992-.843 7.84 1.278 9.157 5.22.342 1.023.59 1.971.854 2.926C83.15 64.2 69.85 68.307 57.25 75.792a8 8 0 108.167 13.75C88.655 75.739 117.374 74.708 128 74.708c10.626 0 39.345 1.03 62.583 14.834a8 8 0 108.167-13.75c-12.604-7.487-25.909-11.593-37.833-13.959.264-.957.51-1.91.854-2.937 1.317-3.942 5.165-6.063 9.156-5.219 10.413 2.201 25.024 6.896 34.802 14.698.934.933 6.949 10.277 11.886 22.875 4.976 12.7 9.95 29.185 13.135 46.792a8.002 8.002 0 1015.75-2.844c-3.391-18.75-8.624-36.098-13.99-49.792-5.365-13.694-9.71-23.086-15.958-28.916a8.023 8.023 0 00-.417-.365c-13.274-10.774-30.102-15.611-41.895-18.104a23.77 23.77 0 00-4.396-.51zM30.625 80.27a8 8 0 00-7.156 5.188c-9.015 23.02-17.74 56.344-17.74 89.313a8 8 0 001.031 3.927c12.51 22.197 39.668 30.614 56.302 33.969 9.176 1.85 18.628-1.919 24.105-9.51l6.593-9.147c9.856 2.064 21.265 3.427 34.24 3.427 12.975 0 24.384-1.363 34.24-3.427l6.583 9.136c5.474 7.6 14.938 11.36 24.114 9.51 16.634-3.354 43.782-11.771 56.292-33.969a8 8 0 10-13.937-7.854c-8.11 14.39-31.211 23.25-45.521 26.136-3.048.614-6.073-.56-7.959-3.177l-3.093-4.282c3.202-1.086 6.213-2.215 8.895-3.354 13.41-5.695 20.823-11.906 20.823-11.906a8.002 8.002 0 10-10.385-12.177s-5.053 4.423-16.687 9.364c-11.635 4.942-29.335 10-53.365 10s-41.73-5.058-53.365-10c-11.634-4.941-16.687-9.364-16.687-9.364a8 8 0 00-5.115-1.99 8 8 0 00-5.27 14.167s7.414 6.21 20.822 11.906c2.683 1.14 5.694 2.268 8.896 3.354l-3.093 4.292c-1.895 2.626-4.92 3.802-7.97 3.188-13.759-2.775-35.335-11.22-44.208-24.646.429-29.375 8.229-60.275 16.365-81.052a8 8 0 00-7.75-11.021zm62.896 37.063c-10.174.052-18.398 9.492-18.398 21.12s8.224 21.068 18.398 21.12c10.174-.052 18.398-9.492 18.398-21.12s-8.224-21.068-18.398-21.12zm68.854 0c-10.31 0-18.667 9.552-18.667 21.334S152.066 160 162.375 160c10.31 0 18.667-9.551 18.667-21.333 0-11.782-8.358-21.334-18.667-21.334z" font-family="none" font-weight="none" font-size="none" text-anchor="none"/></svg>