<svg xmlns="http://www.w3.org/2000/svg" viewBox="0 0 256 256"><path d="M128 21.333c-21.53 0-41.64 6.407-58.417 17.407a8 8 0 108.771 13.375C92.617 42.763 109.636 37.333 128 37.333c50.167 0 90.667 40.5 90.667 90.667 0 14.441-3.362 28.039-9.344 40.135a8.001 8.001 0 0014.344 7.094c7.042-14.24 11-30.3 11-47.229 0-58.814-47.853-106.667-106.667-106.667zM84.27 69.74c-7.082 11.338-2.811 23.742-.395 28.968-5.808 6.832-9.208 15.073-9.208 23.959 0 20.16 17.496 37.01 40.99 41.468-6.982 3.59-12.192 10.117-13.792 18.032h-7.021c-6.918 0-9.605-2.811-13.344-7.553-3.69-4.74-7.66-7.927-12.427-9.25-2.57-.272-4.303 1.684-2.063 3.417 7.568 5.152 8.09 13.584 11.125 19.104 2.763 4.971 8.423 9.448 14.823 9.448h8.375v17.344c-37.103-11.357-64-45.797-64-86.677 0-14.323 3.305-27.822 9.198-39.844a8 8 0 10-14.364-7.041C25.228 95.269 21.333 111.208 21.333 128c0 58.814 47.853 106.667 106.667 106.667 23.855 0 45.963-7.863 63.74-21.125a8.005 8.005 0 10-9.573-12.834c-8.206 6.123-17.494 10.828-27.5 13.906v-27.218c0-10.176-5.854-18.909-14.323-23.26 23.493-4.46 40.99-21.31 40.99-41.47 0-8.394-3.076-16.204-8.313-22.801 2.357-7.296 4.959-20.115-1.292-30.125-12.005 0-19.89 8.248-23.656 13.416A64.887 64.887 0 00128 80c-7.11 0-13.876 1.14-20.073 3.156-3.765-5.168-11.646-13.416-23.656-13.416z" font-family="none" font-weight="none" font-size="none" text-anchor="none"/></svg>