<svg viewBox="0 0 1024 1024" xmlns="http://www.w3.org/2000/svg"><path d="M542.165 439.125a128 128 0 01183.168 115.542v128a42.667 42.667 0 01-85.333 0v-128a42.667 42.667 0 00-85.333 0v128a42.667 42.667 0 01-85.334 0V469.333a42.667 42.667 0 0172.832-30.208zM213.333 810.667h469.334a42.667 42.667 0 010 85.333h-512A42.667 42.667 0 01128 853.333V170.667A42.667 42.667 0 01170.667 128h682.666A42.667 42.667 0 01896 170.667v682.666a42.667 42.667 0 01-85.333 0v-640H213.333v597.334zm85.334-341.334a42.667 42.667 0 0185.333 0v213.334a42.667 42.667 0 01-85.333 0V469.333zM341.333 384a42.667 42.667 0 110-85.333 42.667 42.667 0 010 85.333z"/></svg>