<svg xmlns="http://www.w3.org/2000/svg" viewBox="0 0 256 256"><path d="M208.937 37.417c-7.296 0-16.079 2.355-29.364 7.864l-1.604.657a11012.642 11012.642 0 00-58.386 24.437c-2.965 1.253-4.854 4.143-4.854 7.365 0 5.722 5.85 9.588 11.125 7.364 30.181-12.736 54.254-22.711 59.844-25.031 10.282-4.272 17.922-6.646 23.24-6.646 8.997 0 11.359 6.803 8.697 22.781-1.648 9.878-4.973 32.103-8.781 56.386-.763 4.853 2.989 9.26 7.906 9.26h.01a8.012 8.012 0 007.907-6.77 9418.605 9418.605 0 004.614-29.792c1.766-11.499 3.213-20.928 4.136-26.459 1.861-11.173 2.718-23.821-5.052-32.99-3.264-3.84-9.278-8.426-19.438-8.426zM87.323 85.135a7.951 7.951 0 00-3.969.615c-18.667 7.979-35.611 15.303-50.198 21.719-5.728 2.522-23.146 10.186-22.468 26.218.288 6.918 4.093 16.352 20.562 22l1.219.417c4.597 1.584 14.166 4.887 23.979 7.708 5.973 1.718 11.375 2.542 16.49 2.542 8.874 0 15.749-2.53 21.125-5.48-.027.897-.007 1.803.062 2.71.97 12.33 10.502 19.092 16.198 23.135l.802.562c8.41 6.016 46.472 31.157 50.781 34 8.112 5.355 15.436 7.958 22.396 7.958 10.944 0 25.077-5.847 30.25-33.697 1.37-7.382 2.81-15.58 4.25-24.157.821-4.88-2.936-9.343-7.885-9.343-3.904 0-7.25 2.816-7.896 6.666-1.43 8.512-2.843 16.642-4.198 23.917-2.677 14.41-7.507 20.625-14.531 20.625-3.862 0-8.379-1.873-13.573-5.302-7.04-4.65-42.585-28.157-50.302-33.677-7.04-5.03-16.755-11.086-4.573-23 4.336-4.245 32.752-31.375 54.885-52.49 2.363-2.256.385-5.698-2.24-5.698-.597 0-1.235.183-1.854.594-29.834 19.787-71.204 47.255-76.468 50.833-5.264 3.574-10.392 5.865-17.23 5.865-3.493 0-7.438-.604-12.072-1.937-10.363-2.976-20.486-6.52-24.427-7.875-15.174-5.206-11.57-11.953 3.166-18.438 15.974-7.024 33.21-14.456 50.073-21.667a7.986 7.986 0 004.844-7.354v-.01c0-4.304-3.313-7.554-7.198-7.959z" font-family="none" font-weight="none" font-size="none" text-anchor="none"/></svg>