<svg viewBox="0 0 1024 1024" xmlns="http://www.w3.org/2000/svg"><path d="M854.613 187.221a39.339 39.339 0 0013.227-7.552 42.581 42.581 0 0160.16 4.054c15.53 17.792 13.696 44.8-4.053 60.33a124.33 124.33 0 01-41.344 23.936c-25.6 8.918-51.456 9.686-75.435 5.888a121.77 121.77 0 01-12.117-2.474 42.667 42.667 0 01-22.187-14.464c-35.243-43.776-76.928-54.187-135.253-32.726-54.742 20.182-76.587 65.451-66.262 149.248 3.158 25.6-16.853 48.128-42.581 48-137.173-.853-262.912-61.61-375.595-180.053a42.837 42.837 0 011.408-60.501 42.581 42.581 0 0160.331 1.45c84.224 88.576 173.525 138.24 268.8 150.528 1.408-93.184 43.05-158.89 124.416-188.928 86.187-31.786 162.347-16 219.947 46.294 9.088.64 18.432-.214 26.538-3.03zM360.192 810.496c157.867 0 298.112-67.328 389.973-220.715 33.707-56.192 52.566-121.386 56.576-196.266a42.667 42.667 0 1185.206 4.565c-4.736 88.405-27.563 167.21-68.608 235.733C714.795 815.061 546.09 896 360.192 896c-97.835 0-184.107-26.923-257.408-80.81-34.944-25.6-13.91-81.067 29.184-77.057 62.421 5.888 134.443-15.104 216.192-64.682a42.624 42.624 0 0158.581 14.464c12.203 20.224 5.76 46.506-14.421 58.709-39.424 23.893-77.739 42.41-114.901 55.381a390.613 390.613 0 0082.773 8.491zM136.405 371.541a42.624 42.624 0 1178.635-33.194c9.301 22.186 24.235 38.229 46.08 49.408 20.992 10.709 29.312 36.48 18.645 57.514a42.624 42.624 0 01-57.386 18.646 179.627 179.627 0 01-85.974-92.416zm39.254 170.027a42.795 42.795 0 0115.018-58.581 42.624 42.624 0 0158.454 15.018c16.768 28.374 33.664 42.923 50.261 46.806a42.752 42.752 0 01-19.2 83.285c-42.07-9.728-76.8-39.595-104.533-86.528z"/></svg>