<svg xmlns="http://www.w3.org/2000/svg" viewBox="0 0 256 256"><path d="M127.24 45.333c-33.882 0-65.36 2.414-83.323 6.167l-.115.031C30.27 54.564 17.526 64.257 14.844 79.437l-.01.063c-2.062 12.235-4.167 28.184-4.167 51.167 0 22.939 2.113 38.465 4.718 51.343 2.749 14.733 15.197 24.72 28.938 27.792l.198.042c6.111 1.205 13.438 2.263 21.76 3.156a8 8 0 101.709-15.906c-7.916-.85-14.776-1.849-20.22-2.917-8.544-1.927-15.331-7.897-16.666-15.125l-.031-.135c-2.454-12.11-4.406-26.23-4.406-48.25 0-21.98 1.949-36.683 3.927-48.438 1.378-7.8 7.894-13.092 16.656-15.073 15.546-3.24 46.936-5.823 79.99-5.823 8.916 0 17.655.179 26.01.49a8 8 0 10.594-15.99 717.15 717.15 0 00-26.604-.5zm65.343 3.032a8 8 0 00-.74 15.979c6.114.59 11.443 1.217 15.949 1.843 8.51 1.945 15.273 7.887 16.604 15.094l.02.136c2.483 12.247 4.897 26.81 4.907 48.635-.499 21.895-2.918 36.586-4.948 49.073-1.386 7.779-7.884 13.058-16.625 15.042-16.79 3.293-46.992 5.833-80.01 5.833-9.935 0-19.598-.22-28.72-.625a8 8 0 10-.708 15.979c9.364.416 19.255.646 29.428.646 33.88 0 64.488-2.452 83.24-6.146l.197-.052c13.533-3.033 26.276-12.726 28.958-27.906.008-.038.015-.077.021-.115 2.03-12.484 4.659-28.418 5.177-51.437v-.177c0-23.033-2.636-39.08-5.208-51.792-2.727-14.764-15.19-24.778-28.948-27.854a7.99 7.99 0 00-.635-.115c-4.88-.687-10.659-1.361-17.167-1.99a8 8 0 00-.792-.051zm-83.458 37.083c-9.56.31-18.458 8.01-18.458 18.469a8 8 0 1016 0c0-2.29 1.917-3.42 4.062-2.209l42.615 24.073c2.164 1.223 2.164 3.205 0 4.427l-42.615 24.084c-2.145 1.21-4.062.07-4.062-2.22V128a8 8 0 10-16 0v24.073c0 13.945 15.82 22.988 27.937 16.146l42.615-24.073c12.204-6.895 12.204-25.397 0-32.292l-42.615-24.073v-.01a17.975 17.975 0 00-9.48-2.323z" font-family="none" font-weight="none" font-size="none" text-anchor="none"/></svg>