<svg xmlns="http://www.w3.org/2000/svg" xmlns:xlink="http://www.w3.org/1999/xlink" viewBox="0,0,256,256" width="192px" height="192px" fill-rule="nonzero"><g fill="#555555" fill-rule="nonzero" stroke="none" stroke-width="1" stroke-linecap="butt" stroke-linejoin="miter" stroke-miterlimit="10" stroke-dasharray="" stroke-dashoffset="0" font-family="none" font-weight="none" font-size="none" text-anchor="none" style="mix-blend-mode: normal"><g transform="scale(5.33333,5.33333)"><path d="M23.85742,8.5c-6.3527,0 -12.25508,0.45262 -15.62305,1.15625c-0.00718,0.0019 -0.01434,0.00385 -0.02148,0.00586c-2.53741,0.56858 -4.9267,2.38612 -5.42969,5.23242c-0.00067,0.0039 -0.00132,0.00781 -0.00195,0.01172c-0.38641,2.29402 -0.78125,5.28444 -0.78125,9.59375c0,4.30115 0.39619,7.21232 0.88477,9.62695c0.51531,2.76234 2.84945,4.63486 5.42578,5.21094c0.01234,0.00276 0.02471,0.00536 0.03711,0.00781c1.14584,0.226 2.51966,0.42432 4.08008,0.5918c0.5393,0.06996 1.07424,-0.15743 1.3981,-0.5943c0.32386,-0.43687 0.38593,-1.0148 0.16223,-1.51048c-0.22371,-0.49568 -0.69815,-0.83148 -1.24001,-0.87764c-1.48413,-0.15928 -2.77049,-0.34661 -3.79102,-0.54687c-1.60207,-0.36136 -2.87472,-1.48073 -3.125,-2.83594c-0.00188,-0.00848 -0.00383,-0.01694 -0.00586,-0.02539c-0.46014,-2.27068 -0.82617,-4.91818 -0.82617,-9.04687c0,-4.12131 0.36542,-6.87801 0.73633,-9.08203c0.25843,-1.46238 1.48011,-2.45477 3.12305,-2.82617c2.91489,-0.60757 8.80058,-1.0918 14.99805,-1.0918c1.6719,0 3.31042,0.03345 4.87695,0.0918c0.53931,0.02605 1.05102,-0.23972 1.33985,-0.69592c0.28883,-0.45619 0.31023,-1.03241 0.05603,-1.50876c-0.25421,-0.47636 -0.74479,-0.77935 -1.28455,-0.79337c-1.60146,-0.05965 -3.27619,-0.09375 -4.98828,-0.09375zM36.10938,9.06836c-0.81326,-0.01663 -1.49161,0.61792 -1.52921,1.43048c-0.03761,0.81256 0.57922,1.50705 1.39054,1.56562c1.14624,0.11062 2.14536,0.22826 2.99023,0.3457c1.59567,0.36462 2.86371,1.4787 3.11328,2.83008c0.00123,0.00847 0.00253,0.01694 0.00391,0.02539c0.46537,2.29647 0.91806,5.027 0.91992,9.11914c-0.09345,4.10524 -0.54715,6.85991 -0.92773,9.20117c-0.2599,1.45851 -1.47831,2.44848 -3.11719,2.82031c-3.14792,0.61757 -8.81107,1.09375 -15.00195,1.09375c-1.86272,0 -3.67448,-0.0412 -5.38477,-0.11719c-0.54487,-0.04002 -1.06842,0.21933 -1.36671,0.67705c-0.2983,0.45772 -0.32417,1.04141 -0.06754,1.52372c0.25663,0.48231 0.75517,0.78698 1.30144,0.79532c1.75572,0.07801 3.6103,0.12109 5.51758,0.12109c6.35271,0 12.09151,-0.45972 15.60742,-1.15234c0.01241,-0.0031 0.02478,-0.00635 0.03711,-0.00977c2.53741,-0.56858 4.9267,-2.38612 5.42969,-5.23242c0.00135,-0.00715 0.00266,-0.01431 0.00391,-0.02148c0.38049,-2.34081 0.87351,-5.32836 0.9707,-9.64453c0.00012,-0.01107 0.00012,-0.02214 0,-0.0332c0,-4.31855 -0.49429,-7.32757 -0.97656,-9.71094c-0.51125,-2.76824 -2.84806,-4.64583 -5.42773,-5.22266c-0.03941,-0.00876 -0.07915,-0.01593 -0.11914,-0.02148c-0.91509,-0.12881 -1.99844,-0.25528 -3.21875,-0.37305c-0.04929,-0.00571 -0.09883,-0.00897 -0.14844,-0.00977zM20.46094,16.02148c-1.79254,0.05817 -3.46094,1.50191 -3.46094,3.46289c-0.00765,0.54095 0.27656,1.04412 0.74381,1.31683c0.46725,0.27271 1.04514,0.27271 1.51238,0c0.46725,-0.27271 0.75146,-0.77588 0.74381,-1.31683c0,-0.42936 0.35955,-0.64117 0.76172,-0.41406l7.99023,4.51367c0.40575,0.22923 0.40575,0.60085 0,0.83008l-7.99023,4.51563c-0.40217,0.22711 -0.76172,0.01334 -0.76172,-0.41602v-4.51367c0.00765,-0.54095 -0.27656,-1.04412 -0.74381,-1.31683c-0.46725,-0.27271 -1.04514,-0.27271 -1.51238,0c-0.46725,0.27271 -0.75146,0.77588 -0.74381,1.31683v4.51367c0,2.61464 2.96646,4.31024 5.23828,3.02734l7.99023,-4.51367c2.28825,-1.29277 2.28825,-4.76192 0,-6.05469l-7.99023,-4.51367c0,-0.00065 0,-0.0013 0,-0.00195c-0.56796,-0.32072 -1.17983,-0.45494 -1.77734,-0.43555z"></path></g></g></svg>